<svg id="Layer_1" data-name="Layer 1" xmlns="http://www.w3.org/2000/svg" viewBox="0 0 75 40"><defs><style>.cls-1{fill:#ffffff}</style></defs><path class="cls-1" d="M41.07 39.89h-1.69c-.32 0-.32 0-.26-.32.21-1.37.37-2.69.58-4.07.15-1.22.36-2.43.52-3.65a1.91 1.91 0 0 0 .06-.58v-.32c0-.11.05-.05.1-.05s.06 0 .11.05c.32.16.63.32.89.48s.16.1.11.26a.7.7 0 0 0 .26.69l1.69 1.69.16.16c.1.11.16.21.1.32-.1.53-.15 1.06-.21 1.59-.1.84-.26 1.69-.37 2.48l-.15 1c0 .32 0 .32-.27.32Zm17.38 0h-1.79c-.1 0-.16 0-.1-.16a.67.67 0 0 1 0-.31c.11-.9.26-1.75.37-2.65s.26-1.64.37-2.43.26-1.7.37-2.54.26-1.64.37-2.49.26-1.69.36-2.49c.11-.63.22-1.27.27-1.9.05-.21.05-.21.26-.21h3.43c.37 0 .37 0 .31.37-.1.84-.26 1.74-.37 2.59-.15 1-.26 2-.42 3s-.26 1.91-.42 2.91-.26 1.91-.42 2.86-.26 1.91-.42 2.86c-.05.21-.05.37-.11.58s-.05.16-.21.16h-.21a9.26 9.26 0 0 0-1.64-.15ZM26.52 22.33h-2.79c-.16 0-.21-.06-.11-.21.16-.37.32-.69.48-1.06 1.68-3.55 3.37-7.09 5.06-10.58.26-.53.47-1.06.74-1.59.15-.32.15-.32.42-.11a15.47 15.47 0 0 1 2.1 1.59 12.42 12.42 0 0 1 1.43 1.48c0 .05 0 .11.1.11a.17.17 0 0 1 .06.16c0 .05-.06.1-.06.15-1.42 3.23-2.84 6.51-4.27 9.74-.15.32-.1.32-.47.32Zm-21 2.32h4.59c.52 0 .42.06.36.43L10 28.25a.19.19 0 0 1 0 .16c0 .11-.06.11-.16.11H7.08c-.16 0-.16 0-.21.16l-.16 1-.47 3.18c-.11.79-.27 1.64-.37 2.43-.16 1-.27 1.9-.42 2.86-.06.42-.11.84-.21 1.27v.15c0 .32 0 .32-.22.32H1.7c-.31 0-.31 0-.26-.32.16-1.21.37-2.43.53-3.59l.47-3.18.48-3.17a5.51 5.51 0 0 1 .1-.9c0-.16 0-.16-.16-.16H.28c-.26 0-.31 0-.26-.32.16-.84.26-1.74.37-2.59 0-.21 0-.42.1-.63s.06-.16.06-.27 0-.11.15-.11ZM37.22.11H40c.37 0 .37 0 .42.37.27 1.64.53 3.22.85 4.86s.58 3.44.84 5.19.58 3.44.9 5.13c.36 2.12.73 4.23 1 6.35v.16c0 .16 0 .16-.16.21h-2.42c-.26 0-.31 0-.31-.32a16.32 16.32 0 0 0-1.27-6.35 19.11 19.11 0 0 0-2.74-4.86 1.8 1.8 0 0 1-.26-.64c-.16-1-.26-1.9-.42-2.86v-.42a.05.05 0 0 0-.06 0c-.05.05-.05.11-.1.16l-.64 1.43c-.05.05-.05.16-.1.21s-.11 0-.11 0-.16-.11-.21-.21a21.69 21.69 0 0 0-2.37-2c-.37-.27-.68-.43-1.05-.69-.06-.05-.11-.05-.16-.11s-.11-.1-.05-.21.05-.16.1-.26C32.37 3.6 33.16 2 34 .26c0-.05.06-.1.06-.1a.23.23 0 0 1 .21-.16h.26a21.6 21.6 0 0 0 2.69.11Zm17 39.78h-.82a.58.58 0 0 1-.48-.21l-.21-.21c-2.69-2.65-5.37-5.34-8.06-8l-.95-1a.66.66 0 0 0-.58-.21.29.29 0 0 1-.32-.21 14.17 14.17 0 0 1-.94-2c-.21-.58-.43-1.16-.69-1.75a1.84 1.84 0 0 1-.05-.52l.16-1c0-.16 0-.21.21-.21h1.74a.65.65 0 0 1 .52.21c1.48 1.54 3 3 4.53 4.55L52 33.12c0 .05.15.21.26.16s.05-.16.05-.27c.21-1.37.42-2.8.63-4.18.16-1.21.37-2.43.53-3.65v-.37c0-.11.06-.16.21-.16h3.72a.14.14 0 0 1 .16.16c-.05.27-.05.53-.11.8-.15 1-.31 2-.42 3s-.26 1.91-.42 2.86c-.16 1.11-.32 2.17-.47 3.28s-.37 2.43-.53 3.65c0 .42-.11.79-.16 1.22v.1c-.05.11-.05.16-.21.16Zm11.27 0h-3.4c-.37 0-.37 0-.32-.37.11-.79.27-1.64.37-2.43.06-.32.11-.58.16-.9.05-.16.05-.21.21-.21h6.22a1 1 0 0 0 1-1 .91.91 0 0 0-.9-1H68a4.63 4.63 0 0 1-4.47-3.44 4.75 4.75 0 0 1 3.63-6 6.18 6.18 0 0 1 .9-.1h6.79a.11.11 0 0 1 .11.1.7.7 0 0 1 .04.46c-.16 1-.27 2-.42 3 0 .1-.06.26-.06.37s0 .1-.15.1h-6.43a1 1 0 0 0 0 1.91h.74a4.61 4.61 0 0 1 3 1.11 4.5 4.5 0 0 1 1.64 3.22 4.77 4.77 0 0 1-3.85 5.08 4 4 0 0 1-.84.06c-1.01.04-2.11.04-3.17.04Zm-50.53 0H9.82c-.42 0-.37 0-.32-.37.11-.79.21-1.64.37-2.43s.27-1.69.37-2.54.26-1.64.37-2.49.26-1.69.37-2.54.21-1.64.37-2.43l.31-2.09v-.16a.15.15 0 0 1 .16-.16h7.8a.69.69 0 0 1 .53.22 19.35 19.35 0 0 0 2 1.64h.1a.31.31 0 0 1 .16.32 5.39 5.39 0 0 0-.1.9c-.06.21-.06.37-.11.53s-.05.21-.26.21H15.4c-.42 0-.36 0-.42.37s-.1.79-.15 1.21v.11c0 .21 0 .21.21.21h4.9c.15 0 .15 0 .15.16v.21l-.31 2.07-.16 1a.22.22 0 0 1-.05.16.12.12 0 0 1-.11.1h-5c-.16 0-.21.06-.21.21a2.58 2.58 0 0 0-.16.85c-.06.21-.06.48-.11.69s0 .16.11.16h6.74c.11 0 .11.05.11.16s-.06.21-.06.31c-.15 1-.26 1.91-.42 2.86 0 .11-.05.26-.05.37s-.05.11-.16.16H20c-1.64.02-3.38.02-5.07.02Zm21.92 0H36a.75.75 0 0 1-.31-.1l-.16-.16-8.11-8.15c-.11-.11-.16-.21-.32-.21s-.05.21-.11.37c-.1.85-.26 1.69-.36 2.49s-.27 1.69-.37 2.48c-.16 1-.27 1.91-.43 2.91 0 .11-.05.21-.05.32s-.05.11-.16.16H22c-.26 0-.36 0-.31-.37l.63-4.45.68-4.44c.21-1.53.48-3.07.69-4.6.05-.43.1-.8.16-1.22.05-.16.05-.21.26-.21h1.74a.5.5 0 0 1 .47.21c.05 0 .11.16.21.21l8.06 8.1.22.21c.05.05.1 0 .1-.06a4.83 4.83 0 0 0 .11-.84l.31-2.22a.34.34 0 0 1 .27-.32c.31-.11.63-.21 1-.32a.47.47 0 0 1 .37 0c.73.21 1.47.48 2.16.74.21.11.21.11.15.32-.26 1.64-.47 3.28-.73 4.92-.21 1.38-.42 2.75-.58 4.07v.11h-.21a4.5 4.5 0 0 1-.91.05ZM18.88.11h11.54s.11.05 0 .1 0 .11 0 .16c-.63 1.32-1.26 2.7-1.89 4 0 .05-.06.05-.06.11a.3.3 0 0 1-.26.16c-.16 0-.37-.06-.53-.06a10.78 10.78 0 0 0-7.27 1.8 10.91 10.91 0 0 0-4.69 7.14 9.17 9.17 0 0 0-.16 2.39 10.84 10.84 0 0 0 2.06 6c.05.11.26.22.16.37s-.27.06-.37.06h-4.8c-.42 0-.42 0-.37-.43.11-.84.27-1.64.37-2.48s.27-1.91.42-2.86.27-1.85.42-2.8.27-1.91.43-2.86.26-1.85.42-2.8.26-1.91.42-2.86c0-.21 0-.43.11-.64s0-.16-.16-.16H6.82c-.16 0-.16-.05-.16-.21v-.58C6.82 2.75 7 1.8 7.08.9c0-.21 0-.48.1-.69S7.24 0 7.45 0h.31c3.69.11 7.38.11 11.12.11Zm46.9 22.22h-3.32c-.42 0-.32.05-.63-.27l-9.22-9.26c-.06-.05-.11-.15-.22-.21s-.1-.05-.1.06 0 .42-.11.63c-.15 1-.26 2-.42 2.91s-.26 1.64-.37 2.49-.26 1.58-.37 2.43l-.15.95v.16a.14.14 0 0 1-.16.16h-5.38c-.15 0-.21-.05-.15-.21s0-.48.1-.74c.16-1.22.37-2.49.53-3.71.16-.95.26-1.85.42-2.8s.32-2.17.47-3.23l.48-3.17c.16-.95.26-1.91.42-2.86l.47-3.17c.11-.69.21-1.33.32-2 0-.32 0-.32.37-.32h5.06c.31 0 .31 0 .26.37-.16 1.06-.32 2.17-.47 3.23s-.27 1.85-.42 2.8-.27 1.85-.43 2.8c0 .43-.15.9-.21 1.33v.16c.06-.06.11-.06.16-.11l.74-.74c1.79-1.86 3.55-3.77 5.32-5.62C60 3.07 61.3 1.75 62.51.42A.58.58 0 0 1 63 .21h6.53s.11 0 .11.05 0 .11-.06.11l-.16.16C68 2 66.67 3.33 65.3 4.76c-2.16 2.17-4.3 4.34-6.42 6.56-.21.21-.21.21 0 .43L69.2 22.12a.71.71 0 0 1 .21.26c.06.05 0 .11 0 .16h-.31a17.64 17.64 0 0 0-3.32-.21Z"/><path class="cls-1" d="M39.51 27.11c0 .26 0 .53-.1.79-.06.47-.16 1-.21 1.46a.22.22 0 0 1-.05.16c0 .1 0 .1-.16.1s-.1-.05-.15-.05c-.41-.16-.82-.26-1.24-.42h-.1c-.1 0-.1-.1 0-.16s.1 0 .15-.1a5.87 5.87 0 0 0 1.6-1.62c0-.05 0-.1.1-.16s.05-.05.05 0 .06 0 .11 0Zm.67 2.89c0-.37.1-.68.15-1l.16-.94a.18.18 0 0 1 0-.15h.05c0 .05 0 .1.1.21a18.22 18.22 0 0 0 .83 1.72c.1.21.25.42.36.63a.26.26 0 0 1 .1.21.24.24 0 0 1 0 .26c-.11.05-.16.1-.26.05a.17.17 0 0 1-.1-.05c-.41-.26-.83-.47-1.19-.74-.2-.06-.25-.2-.2-.2Zm-4.53-1.62a2.26 2.26 0 0 1 .26-.16 5.65 5.65 0 0 0 3.24-4.34 8.32 8.32 0 0 0 .15-2.24 13.83 13.83 0 0 0-.61-3.55A19.34 19.34 0 0 0 35 11.23a18.52 18.52 0 0 0-3.09-2.92 10.84 10.84 0 0 0-2.16-1.2 8.13 8.13 0 0 0-3.14-.58 8.78 8.78 0 0 0-5.4 1.72 9.08 9.08 0 0 0-3.6 5.59 8.56 8.56 0 0 0-.21 2.56 9.28 9.28 0 0 0 1.18 4.08c.26.42.52.78.78 1.2.05.1.15.21.2.31l-.05.06a9.21 9.21 0 0 1-1.18-1.57A9 9 0 0 1 17.12 17a9.55 9.55 0 0 1 7.72-10.83 8.68 8.68 0 0 1 5.16.57 11.69 11.69 0 0 1 3.34 2.14A18.36 18.36 0 0 1 37 13.43a19.84 19.84 0 0 1 1.85 4.18 15.15 15.15 0 0 1 .62 3.08 10.27 10.27 0 0 1-.1 3 6 6 0 0 1-1.5 3.18 5 5 0 0 1-2.11 1.47Z"/></svg>
